<svg xmlns="http://www.w3.org/2000/svg" viewBox="0 0 18.003 18.003">
  <defs>
    <style>
      .cls-1 {
        fill: #e67624;
      }
    </style>
  </defs>
  <path id="Shape_15" data-name="Shape 15" class="cls-1" d="M647,1755a9,9,0,1,0,9,9A9,9,0,0,0,647,1755Zm4.66,8.32-4.08,4.08c-.784.785-1.855.983-2.394.444-.007-.007-.011-.017-.018-.025a1.2,1.2,0,0,1-.346-.23l-2.467-2.468a1.214,1.214,0,0,1,1.716-1.716l1.8,1.8,3.838-3.838c.784-.784,1.854-.982,2.394-.443S652.443,1762.536,651.66,1763.319Z" transform="translate(-637.999 -1754.999)"/>
</svg>
