<svg xmlns="http://www.w3.org/2000/svg" viewBox="0 0 20 13.822">
  <defs>
    <style>
      .cls-1 {
        fill: #fff;
      }
    </style>
  </defs>
  <path id="Shape_3" data-name="Shape 3" class="cls-1" d="M956,3882.282a.174.174,0,0,1-.038-.032,3.639,3.639,0,0,0-2.637-.939l-.031-.068a.023.023,0,0,1,.019-.006,3.188,3.188,0,0,0,1.621-.625c.056-.179-.012-.278-.212-.3a5.466,5.466,0,0,0-1.266.291c.481-.291.667-.495.561-.6a2.537,2.537,0,0,0-1.521.693c.2-.322.275-.5.225-.526a4.278,4.278,0,0,0-.673.538,10.134,10.134,0,0,0-.979,1.182l-.012.031a10.261,10.261,0,0,0-1.359,2.981l-.1.074-.019.018a5.021,5.021,0,0,0-1.4-1.151,16.889,16.889,0,0,0-2.307-1.156,20.23,20.23,0,0,0-2.936-1.162,2.759,2.759,0,0,0,1.615,2.486v.018a3.623,3.623,0,0,0-1.1.155c.068.971.8,1.638,2.182,2.009l-.007.018a1.637,1.637,0,0,0-1.34.52,2.43,2.43,0,0,0,2.426,1.212,1.637,1.637,0,0,0-.53.371.739.739,0,0,0-.212.742,1.356,1.356,0,0,0,1.359.594h0l.037.043-.018.018a5.184,5.184,0,0,1-4.134,1.509l-.025.012a5.353,5.353,0,0,1-3.179-1.342,9.769,9.769,0,0,0,4.551,3.389,11.393,11.393,0,0,0,6.465.148h.037a10.284,10.284,0,0,0,5.318-3.506,6.9,6.9,0,0,0,1.266-2.659,2.673,2.673,0,0,0,2.363-.89l-.012-.019a4.97,4.97,0,0,1-2.127-.117v-.112c0-.005,0-.005.006,0,1.154-.123,1.833-.475,2.051-1.057a3.4,3.4,0,0,1-2.382.025A4.761,4.761,0,0,0,956,3882.282Z" transform="translate(-940 -3880)"/>
</svg>
