<svg xmlns="http://www.w3.org/2000/svg" viewBox="0 0 16 16">
  <defs>
    <style>
      .cls-1 {
        fill: #fff;
      }
    </style>
  </defs>
  <path id="Shape_11" data-name="Shape 11" class="cls-1" d="M990.182,3895a1.165,1.165,0,0,1-1.182-1.147v-13.708a1.164,1.164,0,0,1,1.182-1.146h13.635a1.165,1.165,0,0,1,1.183,1.146v13.708a1.166,1.166,0,0,1-1.183,1.147Zm9.966-6.472v3.865h2.416v-4.142c0-2.22-1.193-3.252-2.782-3.252a2.4,2.4,0,0,0-2.178,1.192v-1.022h-2.417c.032.677,0,7.224,0,7.224H997.6v-4.034a1.618,1.618,0,0,1,.079-.585,1.322,1.322,0,0,1,1.24-.879C999.8,3886.895,1000.148,3887.557,1000.148,3888.528Zm-8.715,3.865h2.416v-7.224h-2.416Zm-.143-9.459a1.247,1.247,0,0,0,1.335,1.248h.016a1.252,1.252,0,1,0-1.351-1.248Zm6.3,3.282.017-.024v.024Z" transform="translate(-989 -3879)"/>
</svg>
